<svg xmlns="http://www.w3.org/2000/svg" xmlns:xlink="http://www.w3.org/1999/xlink" width="36" height="36" viewBox="0 0 36 36">
  <defs>
    <clipPath id="clip-path">
      <rect id="사각형_50" data-name="사각형 50" width="36" height="36" fill="#2561f8"/>
    </clipPath>
  </defs>
  <g id="그룹_105" data-name="그룹 105" clip-path="url(#clip-path)">
    <path id="패스_53" data-name="패스 53" d="M40.333,28.333a.334.334,0,0,1,.333.333V40.333a.334.334,0,0,1-.333.333H39a1.334,1.334,0,0,0-1.193.737L36,45.019,34.193,41.4A1.334,1.334,0,0,0,33,40.667H19.667a.334.334,0,0,1-.333-.333V28.667a.334.334,0,0,1,.333-.333Zm0-1.333H19.667A1.667,1.667,0,0,0,18,28.667V40.333A1.667,1.667,0,0,0,19.667,42H33l2.106,4.211a1,1,0,0,0,1.789,0L39,42h1.333A1.667,1.667,0,0,0,42,40.333V28.667A1.667,1.667,0,0,0,40.333,27" transform="translate(-12 -18)" fill="#2561f8"/>
  </g>
</svg>