<svg id="그룹_103" data-name="그룹 103" xmlns="http://www.w3.org/2000/svg" xmlns:xlink="http://www.w3.org/1999/xlink" width="36" height="36" viewBox="0 0 36 36">
  <defs>
    <clipPath id="clip-path">
      <rect id="사각형_49" data-name="사각형 49" width="36" height="36" fill="#2561f8"/>
    </clipPath>
  </defs>
  <g id="그룹_101" data-name="그룹 101" clip-path="url(#clip-path)">
    <path id="패스_51" data-name="패스 51" d="M37.333,47.431a.325.325,0,0,1-.3-.184L34.93,43.035a.667.667,0,0,0-.6-.368H21a1,1,0,0,1-1-1V30a1,1,0,0,1,1-1H41.667a1,1,0,0,1,1,1V41.667a1,1,0,0,1-1,1H40.333a.667.667,0,0,0-.6.368l-2.106,4.211a.325.325,0,0,1-.3.184" transform="translate(-13.333 -19.333)" fill="#2561f8"/>
    <path id="패스_52" data-name="패스 52" d="M40.333,28.333a.334.334,0,0,1,.333.333V40.333a.334.334,0,0,1-.333.333H39a1.334,1.334,0,0,0-1.193.737L36,45.019,34.193,41.4A1.334,1.334,0,0,0,33,40.667H19.667a.334.334,0,0,1-.333-.333V28.667a.334.334,0,0,1,.333-.333Zm0-1.333H19.667A1.667,1.667,0,0,0,18,28.667V40.333A1.667,1.667,0,0,0,19.667,42H33l2.106,4.211a1,1,0,0,0,1.789,0L39,42h1.333A1.667,1.667,0,0,0,42,40.333V28.667A1.667,1.667,0,0,0,40.333,27" transform="translate(-12 -18)" fill="#2561f8"/>
  </g>
</svg>
