<svg xmlns="http://www.w3.org/2000/svg" xmlns:xlink="http://www.w3.org/1999/xlink" width="36" height="36" viewBox="0 0 36 36">
  <defs>
    <clipPath id="clip-path">
      <rect id="사각형_55" data-name="사각형 55" width="36" height="36" fill="#2561f8"/>
    </clipPath>
  </defs>
  <g id="그룹_137" data-name="그룹 137" transform="translate(-93 -84)">
    <g id="그룹_136" data-name="그룹 136" transform="translate(93 84)" clip-path="url(#clip-path)">
      <path id="패스_59" data-name="패스 59" d="M64.463,32.094a3.75,3.75,0,1,0-3.75-3.75,3.75,3.75,0,0,0,3.75,3.75" transform="translate(-40.475 -16.396)" fill="#2561f8"/>
      <path id="패스_60" data-name="패스 60" d="M28,25.719a3.75,3.75,0,1,0-3.75-3.75A3.75,3.75,0,0,0,28,25.719" transform="translate(-16.165 -12.146)" fill="#2561f8"/>
      <path id="패스_61" data-name="패스 61" d="M55.246,58.257c0,.012.009.024.013.036.014-.024.027-.048.041-.072-.017.013-.037.023-.055.035" transform="translate(-36.831 -38.815)" fill="#2561f8"/>
      <path id="패스_62" data-name="패스 62" d="M40.527,68.761a6.262,6.262,0,0,0-3.971-1.417h-3.75a6.3,6.3,0,0,0-6.292,6.292.667.667,0,0,0,.667.667h15a.667.667,0,0,0,.667-.667,6.281,6.281,0,0,0-2.321-4.875" transform="translate(-17.677 -44.896)" fill="#2561f8"/>
      <path id="패스_63" data-name="패스 63" d="M43.516,41.219a3.75,3.75,0,0,0,0,7.5c.032,0,.062,0,.093,0a3.748,3.748,0,0,0-.093-7.5" transform="translate(-26.511 -27.479)" fill="#2561f8"/>
      <path id="패스_64" data-name="패스 64" d="M66.657,50.57,62.835,50.5a5.054,5.054,0,0,1-1.644,4.445,7.625,7.625,0,0,1,3.3,1.555,7.706,7.706,0,0,1,1.042,1.033h6.752a.667.667,0,0,0,.667-.667,6.3,6.3,0,0,0-6.292-6.292" transform="translate(-40.794 -33.664)" fill="#2561f8"/>
      <path id="패스_65" data-name="패스 65" d="M19.254,46.886a5.049,5.049,0,0,1,.84-2.792h-2.8A6.3,6.3,0,0,0,11,50.4a.662.662,0,0,0,.667.651h7.974s.729-.2,1.384-.321a5.069,5.069,0,0,1-1.768-3.845" transform="translate(-7.332 -29.396)" fill="#2561f8"/>
    </g>
  </g>
</svg>
