<svg xmlns="http://www.w3.org/2000/svg" xmlns:xlink="http://www.w3.org/1999/xlink" width="36" height="36" viewBox="0 0 36 36">
  <defs>
    <clipPath id="clip-path">
      <rect id="사각형_41" data-name="사각형 41" width="36" height="36" fill="none"/>
    </clipPath>
  </defs>
  <g id="그룹_81" data-name="그룹 81" clip-path="url(#clip-path)">
    <path id="패스_41" data-name="패스 41" d="M43.526,48.74a3.76,3.76,0,1,0-3.76-3.76,3.761,3.761,0,0,0,3.76,3.76m0-6.184A2.423,2.423,0,1,1,41.1,44.979a2.426,2.426,0,0,1,2.423-2.423" transform="translate(-26.574 -27.541)" fill="#2561f8"/>
    <path id="패스_42" data-name="패스 42" d="M64.473,32.115a3.76,3.76,0,1,0-3.76-3.76,3.761,3.761,0,0,0,3.76,3.76m0-6.184a2.423,2.423,0,1,1-2.423,2.423,2.426,2.426,0,0,1,2.423-2.423" transform="translate(-40.519 -16.474)" fill="#2561f8"/>
    <path id="패스_43" data-name="패스 43" d="M65.181,50.719h-3.76a6.274,6.274,0,0,0-2.469.5,6.267,6.267,0,0,1,.542,1.222,4.947,4.947,0,0,1,1.927-.389h3.76a4.978,4.978,0,0,1,4.972,4.972.669.669,0,1,0,1.337,0,6.316,6.316,0,0,0-6.309-6.309" transform="translate(-39.347 -33.866)" fill="#2561f8"/>
    <path id="패스_44" data-name="패스 44" d="M36.586,67.344h-3.76a6.316,6.316,0,0,0-6.309,6.309.669.669,0,1,0,1.337,0,4.978,4.978,0,0,1,4.972-4.972h3.76a4.978,4.978,0,0,1,4.972,4.972.669.669,0,1,0,1.337,0,6.316,6.316,0,0,0-6.309-6.309" transform="translate(-17.753 -44.934)" fill="#2561f8"/>
    <path id="패스_45" data-name="패스 45" d="M28.007,25.74a3.76,3.76,0,1,0-3.76-3.76,3.761,3.761,0,0,0,3.76,3.76m0-6.184a2.423,2.423,0,1,1-2.423,2.423,2.426,2.426,0,0,1,2.423-2.423" transform="translate(-16.243 -12.23)" fill="#2561f8"/>
    <path id="패스_46" data-name="패스 46" d="M21.816,44.142a6.3,6.3,0,0,0-.749-.049h-3.76A6.316,6.316,0,0,0,11,50.4a.669.669,0,0,0,1.337,0,4.978,4.978,0,0,1,4.972-4.972h3.606a3.6,3.6,0,0,1,.9-1.288" transform="translate(-7.422 -29.455)" fill="#2561f8"/>
    <path id="패스_47" data-name="패스 47" d="M55.246,58.257c0,.012.009.024.013.036.014-.024.027-.048.041-.072-.017.013-.037.023-.055.035" transform="translate(-36.88 -38.861)" fill="#001cde"/>
  </g>
</svg>
