<svg xmlns="http://www.w3.org/2000/svg" width="36" height="36" viewBox="0 0 36 36">
  <g id="그룹_13" data-name="그룹 13" transform="translate(-234.179 -547.179)">
    <rect id="사각형_11" data-name="사각형 11" width="36" height="36" transform="translate(234.179 547.179)" fill="rgba(255,255,255,0)"/>
    <g id="그룹_1" data-name="그룹 1" transform="translate(238.261 553.009)">
      <path id="패스_1" data-name="패스 1" d="M395.487-160.668a1.45,1.45,0,0,1,1.033.428l11.351,11.351c.02.02.03.03.014.07s-.031.04-.06.04h-1.95a1.332,1.332,0,0,0-1.332,1.332v8.029a.065.065,0,0,1-.064.064h-4.848a.064.064,0,0,1-.064-.064v-4.821a4.551,4.551,0,0,0-.978-3.282,3.943,3.943,0,0,0-3.1-1.258,3.943,3.943,0,0,0-3.1,1.258,4.552,4.552,0,0,0-.978,3.282v4.821a.064.064,0,0,1-.064.064H386.5a.065.065,0,0,1-.064-.064v-8.029a1.332,1.332,0,0,0-1.332-1.332h-1.95c-.029,0-.043,0-.06-.04s-.006-.05.014-.07l11.351-11.351a1.45,1.45,0,0,1,1.033-.428m0-1.332a2.785,2.785,0,0,0-1.975.818l-11.351,11.351a1.4,1.4,0,0,0,.987,2.383h1.95v8.029a1.4,1.4,0,0,0,1.4,1.4h4.848a1.4,1.4,0,0,0,1.4-1.4v-4.887s-.394-3.142,2.747-3.142,2.747,3.142,2.747,3.142v4.887a1.4,1.4,0,0,0,1.4,1.4h4.848a1.4,1.4,0,0,0,1.4-1.4v-8.029h1.95a1.4,1.4,0,0,0,.987-2.383l-11.351-11.351a2.785,2.785,0,0,0-1.975-.818Z" transform="translate(-381.75 162)" fill="#2561f8"/>
    </g>
    <path id="패스_12" data-name="패스 12" d="M31.836,42.473a.726.726,0,0,1-.725-.725V36.933a3.9,3.9,0,0,0-.806-2.788,3.275,3.275,0,0,0-2.582-1.025,3.276,3.276,0,0,0-2.582,1.025,3.9,3.9,0,0,0-.806,2.788v4.816a.726.726,0,0,1-.725.725H18.8a.726.726,0,0,1-.725-.725V33.781a.661.661,0,0,0-.661-.661H15.479a.725.725,0,0,1-.513-1.237L26.231,20.618a2.111,2.111,0,0,1,2.985,0L40.48,31.883a.725.725,0,0,1-.513,1.237H38.032a.661.661,0,0,0-.661.661v7.968a.726.726,0,0,1-.725.725Z" transform="translate(224.339 533.84)" fill="#2561f8"/>
  </g>
</svg>