<svg xmlns="http://www.w3.org/2000/svg" xmlns:xlink="http://www.w3.org/1999/xlink" width="36" height="36" viewBox="0 0 36 36">
  <defs>
    <clipPath id="clip-path">
      <rect id="사각형_51" data-name="사각형 51" width="36" height="36" fill="#2561f8"/>
    </clipPath>
  </defs>
  <g id="그룹_107" data-name="그룹 107" clip-path="url(#clip-path)">
    <path id="패스_54" data-name="패스 54" d="M26.5,19.333a1.451,1.451,0,0,1,1.034.428L38.9,31.123c.02.02.03.03.014.07s-.031.04-.06.04H36.9a1.333,1.333,0,0,0-1.333,1.333V40.6a.065.065,0,0,1-.064.064H30.648a.064.064,0,0,1-.064-.064V35.777a4.556,4.556,0,0,0-.979-3.285,3.947,3.947,0,0,0-3.1-1.259,3.947,3.947,0,0,0-3.1,1.259,4.556,4.556,0,0,0-.979,3.285V40.6a.064.064,0,0,1-.064.064H17.5a.065.065,0,0,1-.064-.064V32.566A1.333,1.333,0,0,0,16.1,31.232H14.151c-.029,0-.043,0-.06-.04s-.006-.05.014-.07L25.466,19.762a1.451,1.451,0,0,1,1.034-.428M26.5,18a2.788,2.788,0,0,0-1.977.819L13.162,30.18a1.4,1.4,0,0,0,.988,2.386H16.1V40.6A1.4,1.4,0,0,0,17.5,42h4.852a1.4,1.4,0,0,0,1.4-1.4V35.711s-.395-3.145,2.75-3.145,2.75,3.145,2.75,3.145V40.6a1.4,1.4,0,0,0,1.4,1.4H35.5a1.4,1.4,0,0,0,1.4-1.4V32.566h1.952a1.4,1.4,0,0,0,.988-2.386L28.477,18.819A2.788,2.788,0,0,0,26.5,18" transform="translate(-8.5 -12)" fill="#2561f8"/>
  </g>
</svg>
